<?xml version="1.0" encoding="UTF-8" standalone="no"?>
<!-- Generator: Adobe Illustrator 19.1.0, SVG Export Plug-In . SVG Version: 6.00 Build 0)  -->

<svg
   xmlns:dc="http://purl.org/dc/elements/1.1/"
   xmlns:cc="http://creativecommons.org/ns#"
   xmlns:rdf="http://www.w3.org/1999/02/22-rdf-syntax-ns#"
   xmlns:svg="http://www.w3.org/2000/svg"
   xmlns="http://www.w3.org/2000/svg"
   xmlns:sodipodi="http://sodipodi.sourceforge.net/DTD/sodipodi-0.dtd"
   xmlns:inkscape="http://www.inkscape.org/namespaces/inkscape"
   version="1.1"
   id="Layer_1"
   x="0px"
   y="0px"
   viewBox="0 0 250 250"
   style="enable-background:new 0 0 250 250;"
   xml:space="preserve"
   sodipodi:docname="angular.svg"
   inkscape:version="0.92.4 (5da689c313, 2019-01-14)"><metadata
   id="metadata839"><rdf:RDF><cc:Work
       rdf:about=""><dc:format>image/svg+xml</dc:format><dc:type
         rdf:resource="http://purl.org/dc/dcmitype/StillImage" /></cc:Work></rdf:RDF></metadata><defs
   id="defs837" /><sodipodi:namedview
   pagecolor="#ffffff"
   bordercolor="#666666"
   borderopacity="1"
   objecttolerance="10"
   gridtolerance="10"
   guidetolerance="10"
   inkscape:pageopacity="0"
   inkscape:pageshadow="2"
   inkscape:window-width="1920"
   inkscape:window-height="1017"
   id="namedview835"
   showgrid="false"
   inkscape:zoom="3.392"
   inkscape:cx="125"
   inkscape:cy="125"
   inkscape:window-x="1912"
   inkscape:window-y="-8"
   inkscape:window-maximized="1"
   inkscape:current-layer="g832" />
<g
   id="g832">
	<path
   style="fill:#f5f5dc;fill-opacity:1"
   d="m 108,135.4 h 17 v 0 0 h 17 L 125,94.5 Z"
   id="polygon828" />
	<path
   d="M125,30L125,30L125,30L31.9,63.2l14.2,123.1L125,230l0,0l0,0l78.9-43.7l14.2-123.1L125,30z M183.1,182.6h-21.7h0   l-11.7-29.2H125h0h0h-24.7l-11.7,29.2h0H66.9h0L125,52.1l0,0l0,0l0,0l0,0L183.1,182.6L183.1,182.6z"
   id="path830"
   style="fill:#f5f5dc;fill-opacity:1" />
</g>
</svg>