<?xml version="1.0" encoding="UTF-8" standalone="no"?>
<svg
   xmlns:dc="http://purl.org/dc/elements/1.1/"
   xmlns:cc="http://creativecommons.org/ns#"
   xmlns:rdf="http://www.w3.org/1999/02/22-rdf-syntax-ns#"
   xmlns:svg="http://www.w3.org/2000/svg"
   xmlns="http://www.w3.org/2000/svg"
   xmlns:sodipodi="http://sodipodi.sourceforge.net/DTD/sodipodi-0.dtd"
   xmlns:inkscape="http://www.inkscape.org/namespaces/inkscape"
   width="24"
   height="24"
   viewBox="0 0 24 24"
   version="1.1"
   id="svg4550"
   sodipodi:docname="status.svg"
   inkscape:version="0.92.4 (5da689c313, 2019-01-14)">
  <metadata
     id="metadata4556">
    <rdf:RDF>
      <cc:Work
         rdf:about="">
        <dc:format>image/svg+xml</dc:format>
        <dc:type
           rdf:resource="http://purl.org/dc/dcmitype/StillImage" />
      </cc:Work>
    </rdf:RDF>
  </metadata>
  <defs
     id="defs4554" />
  <sodipodi:namedview
     pagecolor="#ffffff"
     bordercolor="#666666"
     borderopacity="1"
     objecttolerance="10"
     gridtolerance="10"
     guidetolerance="10"
     inkscape:pageopacity="0"
     inkscape:pageshadow="2"
     inkscape:window-width="1920"
     inkscape:window-height="1017"
     id="namedview4552"
     showgrid="false"
     inkscape:zoom="9.8333333"
     inkscape:cx="9.4803455"
     inkscape:cy="19.098997"
     inkscape:window-x="1912"
     inkscape:window-y="-8"
     inkscape:window-maximized="1"
     inkscape:current-layer="svg4550" />
  <path
     d="M 12 2 C 6.48 2 2 6.48 2 12 C 2 17.52 6.48 22 12 22 C 17.52 22 22 17.52 22 12 C 22 6.48 17.52 2 12 2 z M 9.609375 6.7597656 C 10.909375 6.7597656 11.970703 7.8191406 11.970703 9.1191406 C 11.970703 10.419141 10.909375 11.480469 9.609375 11.480469 C 8.309375 11.480469 7.25 10.419141 7.25 9.1191406 C 7.25 7.8091406 8.299375 6.7597656 9.609375 6.7597656 z M 15.609375 8.3398438 C 16.679375 8.3398438 17.539062 9.1995314 17.539062 10.269531 C 17.539062 11.339531 16.679375 12.199219 15.609375 12.199219 C 14.539375 12.199219 13.679688 11.339531 13.679688 10.269531 C 13.669688 9.1995314 14.539375 8.3398438 15.609375 8.3398438 z M 9.609375 12.990234 C 10.139375 12.990234 10.809766 13.070937 11.509766 13.210938 C 9.8697652 14.080936 9.609375 15.230625 9.609375 15.890625 L 9.609375 19.640625 C 7.209375 18.890625 5.3107031 17.039687 4.4707031 14.679688 C 5.5207031 13.559686 8.139375 12.990234 9.609375 12.990234 z M 15.609375 13.759766 C 16.679375 13.759766 18.529219 14.150156 19.449219 14.910156 C 18.279219 17.880156 15.39 20 12 20 C 11.73 20 11.470936 19.990937 11.210938 19.960938 L 11.210938 15.890625 C 11.210937 14.470625 14.149375 13.759766 15.609375 13.759766 z "
     id="path5109"
     style="fill:#f5f5dc;fill-opacity:1" />
</svg>
